<?xml version="1.0" standalone="no"?>
<!DOCTYPE svg PUBLIC "-//W3C//DTD SVG 20010904//EN"
 "http://www.w3.org/TR/2001/REC-SVG-20010904/DTD/svg10.dtd">
<svg version="1.0" xmlns="http://www.w3.org/2000/svg"
 width="500.000000pt" height="500.000000pt" viewBox="0 0 500.000000 500.000000"
 preserveAspectRatio="xMidYMid meet">

<g transform="translate(0.000000,500.000000) scale(0.100000,-0.100000)"
fill="#000000" stroke="none">
<path d="M2444 3971 c-29 -17 -67 -52 -91 -83 -60 -80 -775 -1305 -795 -1363
-54 -155 19 -285 177 -315 50 -9 265 -13 843 -14 l777 -1 53 24 c137 62 170
197 87 361 -46 92 -324 580 -339 598 -9 9 -31 -21 -95 -130 -278 -475 -302
-507 -408 -555 -73 -34 -191 -42 -274 -20 -118 31 -226 129 -269 244 -25 67
-30 183 -11 253 43 154 180 274 331 287 92 9 300 -49 300 -82 0 -16 -100 -185
-109 -185 -3 0 -24 12 -46 25 -118 73 -265 -17 -267 -162 0 -72 30 -121 94
-154 69 -35 157 -20 209 37 15 16 113 176 218 356 l192 327 -123 221 c-68 121
-142 243 -165 270 -83 94 -191 117 -289 61z"/>
<path d="M1293 1863 c-9 -3 -13 -30 -13 -84 0 -76 -1 -79 -19 -69 -31 16 -83
12 -119 -10 -103 -63 -96 -233 11 -284 41 -19 65 -20 103 -6 19 8 30 8 38 0
14 -14 69 -13 84 2 17 17 17 429 0 446 -12 12 -62 15 -85 5z m-35 -265 c19
-19 15 -66 -7 -78 -27 -14 -37 -13 -55 6 -32 31 -14 84 29 84 12 0 26 -5 33
-12z"/>
<path d="M1797 1863 c-4 -3 -7 -97 -7 -209 0 -244 2 -248 96 -249 54 0 58 2
64 25 10 39 -3 75 -28 78 -22 3 -22 7 -22 163 0 91 -4 169 -10 180 -8 14 -21
19 -49 19 -21 0 -41 -3 -44 -7z"/>
<path d="M2791 1851 c-15 -28 -13 -346 2 -391 15 -43 48 -61 107 -58 l45 3 3
46 c3 44 1 47 -27 57 l-31 11 -2 173 -3 173 -42 3 c-33 2 -44 -1 -52 -17z"/>
<path d="M3362 1858 c-17 -17 -17 -429 0 -446 15 -15 70 -16 84 -2 7 7 21 7
42 -1 45 -15 92 -4 130 31 39 35 52 67 52 127 0 103 -110 186 -191 143 -18
-10 -19 -7 -19 63 0 82 -9 97 -55 97 -17 0 -36 -5 -43 -12z m179 -258 c42 -23
5 -100 -40 -85 -34 10 -45 42 -26 71 17 26 35 30 66 14z"/>
<path d="M2042 1818 c-7 -7 -12 -31 -12 -55 0 -36 -3 -43 -20 -43 -48 0 -50
-101 -2 -108 20 -3 22 -9 22 -67 0 -35 5 -75 11 -89 16 -34 70 -58 122 -54
l42 3 0 44 c0 42 -2 45 -32 53 -32 8 -33 11 -33 58 0 50 0 50 33 50 41 0 57
15 57 55 0 40 -16 55 -57 55 -32 0 -33 1 -33 43 0 51 -13 67 -55 67 -17 0 -36
-5 -43 -12z"/>
<path d="M1520 1708 c-60 -31 -90 -77 -90 -140 0 -121 81 -189 207 -174 73 9
93 20 93 55 0 41 -30 64 -64 51 -38 -14 -79 -12 -102 5 -17 13 -12 14 59 15
70 0 80 3 104 26 21 21 24 32 19 62 -16 103 -125 151 -226 100z m111 -94 c17
-20 -2 -34 -48 -34 -38 0 -42 12 -11 34 28 20 42 20 59 0z"/>
<path d="M3770 1713 c-96 -49 -65 -179 48 -199 49 -9 60 -16 36 -25 -10 -3
-34 0 -53 7 -47 19 -67 17 -85 -8 -22 -31 -20 -45 9 -64 40 -26 95 -35 152
-23 65 13 93 44 93 103 0 64 -28 87 -134 111 -22 5 -26 9 -17 18 8 8 23 8 58
-2 45 -11 49 -11 65 10 10 11 18 27 18 35 0 43 -130 68 -190 37z"/>
<path d="M2330 1697 c-102 -68 -95 -229 13 -280 41 -20 65 -21 103 -7 19 8 30
8 38 0 14 -14 69 -13 84 2 17 17 17 279 0 296 -15 15 -70 16 -85 1 -8 -8 -17
-8 -31 0 -33 18 -87 13 -122 -12z m118 -99 c19 -19 15 -66 -7 -78 -27 -14 -37
-13 -55 6 -32 31 -14 84 29 84 12 0 26 -5 33 -12z"/>
<path d="M3049 1696 c-44 -30 -69 -80 -69 -136 0 -49 17 -84 59 -125 32 -30
46 -32 141 -26 14 1 41 -1 61 -4 56 -10 60 2 57 166 l-3 144 -38 3 c-21 2 -45
-2 -52 -8 -10 -8 -19 -8 -34 -1 -33 18 -84 13 -122 -13z m125 -105 c22 -25 13
-58 -20 -73 -46 -21 -84 40 -48 76 21 21 47 20 68 -3z"/>
</g>
</svg>
