<svg version="1" xmlns="http://www.w3.org/2000/svg" width="666.667" height="666.667" viewBox="0 0 500 500"><path d="M244.4 102.9c-2.9 1.7-6.7 5.2-9.1 8.3-6 8-77.5 130.5-79.5 136.3-5.4 15.5 1.9 28.5 17.7 31.5 5 .9 26.5 1.3 84.3 1.4l77.7.1 5.3-2.4c13.7-6.2 17-19.7 8.7-36.1-4.6-9.2-32.4-58-33.9-59.8-.9-.9-3.1 2.1-9.5 13-27.8 47.5-30.2 50.7-40.8 55.5-7.3 3.4-19.1 4.2-27.4 2-11.8-3.1-22.6-12.9-26.9-24.4-2.5-6.7-3-18.3-1.1-25.3 4.3-15.4 18-27.4 33.1-28.7 9.2-.9 30 4.9 30 8.2 0 1.6-10 18.5-10.9 18.5-.3 0-2.4-1.2-4.6-2.5-11.8-7.3-26.5 1.7-26.7 16.2 0 7.2 3 12.1 9.4 15.4 6.9 3.5 15.7 2 20.9-3.7 1.5-1.6 11.3-17.6 21.8-35.6l19.2-32.7-12.3-22.1c-6.8-12.1-14.2-24.3-16.5-27-8.3-9.4-19.1-11.7-28.9-6.1zM129.3 313.7c-.9.3-1.3 3-1.3 8.4 0 7.6-.1 7.9-1.9 6.9-3.1-1.6-8.3-1.2-11.9 1-10.3 6.3-9.6 23.3 1.1 28.4 4.1 1.9 6.5 2 10.3.6 1.9-.8 3-.8 3.8 0 1.4 1.4 6.9 1.3 8.4-.2 1.7-1.7 1.7-42.9 0-44.6-1.2-1.2-6.2-1.5-8.5-.5zm-3.5 26.5c1.9 1.9 1.5 6.6-.7 7.8-2.7 1.4-3.7 1.3-5.5-.6-3.2-3.1-1.4-8.4 2.9-8.4 1.2 0 2.6.5 3.3 1.2zm53.9-26.5c-.4.3-.7 9.7-.7 20.9 0 24.4.2 24.8 9.6 24.9 5.4 0 5.8-.2 6.4-2.5 1-3.9-.3-7.5-2.8-7.8-2.2-.3-2.2-.7-2.2-16.3 0-9.1-.4-16.9-1-18-.8-1.4-2.1-1.9-4.9-1.9-2.1 0-4.1.3-4.4.7zm99.4 1.2c-1.5 2.8-1.3 34.6.2 39.1 1.5 4.3 4.8 6.1 10.7 5.8l4.5-.3.3-4.6c.3-4.4.1-4.7-2.7-5.7l-3.1-1.1-.2-17.3-.3-17.3-4.2-.3c-3.3-.2-4.4.1-5.2 1.7zm57.1-.7c-1.7 1.7-1.7 42.9 0 44.6 1.5 1.5 7 1.6 8.4.2.7-.7 2.1-.7 4.2.1 4.5 1.5 9.2.4 13-3.1 3.9-3.5 5.2-6.7 5.2-12.7 0-10.3-11-18.6-19.1-14.3-1.8 1-1.9.7-1.9-6.3 0-8.2-.9-9.7-5.5-9.7-1.7 0-3.6.5-4.3 1.2zm17.9 25.8c4.2 2.3.5 10-4 8.5-3.4-1-4.5-4.2-2.6-7.1 1.7-2.6 3.5-3 6.6-1.4zm-149.9-21.8c-.7.7-1.2 3.1-1.2 5.5 0 3.6-.3 4.3-2 4.3-4.8 0-5 10.1-.2 10.8 2 .3 2.2.9 2.2 6.7 0 3.5.5 7.5 1.1 8.9 1.6 3.4 7 5.8 12.2 5.4l4.2-.3v-4.4c0-4.2-.2-4.5-3.2-5.3-3.2-.8-3.3-1.1-3.3-5.8 0-5 0-5 3.3-5 4.1 0 5.7-1.5 5.7-5.5s-1.6-5.5-5.7-5.5c-3.2 0-3.3-.1-3.3-4.3 0-5.1-1.3-6.7-5.5-6.7-1.7 0-3.6.5-4.3 1.2zm-52.2 11c-6 3.1-9 7.7-9 14 0 12.1 8.1 18.9 20.7 17.4 7.3-.9 9.3-2 9.3-5.5 0-4.1-3-6.4-6.4-5.1-3.8 1.4-7.9 1.2-10.2-.5-1.7-1.3-1.2-1.4 5.9-1.5 7 0 8-.3 10.4-2.6 2.1-2.1 2.4-3.2 1.9-6.2-1.6-10.3-12.5-15.1-22.6-10zm11.1 9.4c1.7 2-.2 3.4-4.8 3.4-3.8 0-4.2-1.2-1.1-3.4 2.8-2 4.2-2 5.9 0zm213.9-9.9c-9.6 4.9-6.5 17.9 4.8 19.9 4.9.9 6 1.6 3.6 2.5-1 .3-3.4 0-5.3-.7-4.7-1.9-6.7-1.7-8.5.8-2.2 3.1-2 4.5.9 6.4 4 2.6 9.5 3.5 15.2 2.3 6.5-1.3 9.3-4.4 9.3-10.3 0-6.4-2.8-8.7-13.4-11.1-2.2-.5-2.6-.9-1.7-1.8.8-.8 2.3-.8 5.8.2 4.5 1.1 4.9 1.1 6.5-1 1-1.1 1.8-2.7 1.8-3.5 0-4.3-13-6.8-19-3.7zm-144 1.6c-10.2 6.8-9.5 22.9 1.3 28 4.1 2 6.5 2.1 10.3.7 1.9-.8 3-.8 3.8 0 1.4 1.4 6.9 1.3 8.4-.2 1.7-1.7 1.7-27.9 0-29.6-1.5-1.5-7-1.6-8.5-.1-.8.8-1.7.8-3.1 0-3.3-1.8-8.7-1.3-12.2 1.2zm11.8 9.9c1.9 1.9 1.5 6.6-.7 7.8-2.7 1.4-3.7 1.3-5.5-.6-3.2-3.1-1.4-8.4 2.9-8.4 1.2 0 2.6.5 3.3 1.2zm60.1-9.8c-4.4 3-6.9 8-6.9 13.6 0 4.9 1.7 8.4 5.9 12.5 3.2 3 4.6 3.2 14.1 2.6 1.4-.1 4.1.1 6.1.4 5.6 1 6-.2 5.7-16.6l-.3-14.4-3.8-.3c-2.1-.2-4.5.2-5.2.8-1 .8-1.9.8-3.4.1-3.3-1.8-8.4-1.3-12.2 1.3zm12.5 10.5c2.2 2.5 1.3 5.8-2 7.3-4.6 2.1-8.4-4-4.8-7.6 2.1-2.1 4.7-2 6.8.3z"/></svg>